<svg viewBox="0 0 23.969 18" xmlns="http://www.w3.org/2000/svg"><path d="m12.08 42.781q-.511 0-1.02 0a45.3 45.3 0 0 0 -5.481.329 4.341 4.341 0 0 0 -1.336 1.568 16.531 16.531 0 0 0 -1.424 3.844 5.419 5.419 0 0 1 -.458.573c-.164-.04.012-.409-.028-.584.1-.542-.553-.872-1.005-.665-.458.177-1.151.224-1.328.763a1.076 1.076 0 0 0 1.217.994c.272.044.387.383.554.569.014.988-.21 1.979-.155 2.974a7.278 7.278 0 0 0 .159 1.9.179.179 0 0 0 .157.068.383.383 0 0 0 -.02.111v5.128a.444.444 0 0 0 .427.427h1.709a.444.444 0 0 0 .427-.427v-1.768h15.007v1.768a.444.444 0 0 0 .427.427h1.709a.444.444 0 0 0 .427-.427v-5.127a.382.382 0 0 0 -.02-.118c.307 0 .23-.494.279-.715a20.447 20.447 0 0 0 -.159-3.988 1.317 1.317 0 0 1 .547-.789 1.174 1.174 0 0 0 1.275-.9c-.08-.561-.784-.676-1.225-.837-.4-.165-1.078-.088-1.118.445-.042.243.114.62.007.78-.248-.1-.347-.426-.515-.628a18.2 18.2 0 0 0 -1.234-3.534 6.232 6.232 0 0 0 -1.43-1.81 29.911 29.911 0 0 0 -3.31-.279c-1.02-.049-2.042-.071-3.063-.072zm-.08.551c2.014 0 4.028.006 4.186.022a1.807 1.807 0 0 1 .384.081c.16.061.221.126.58.6a5.03 5.03 0 0 0 .883.966c.71.633.784.736.988 1.387.065.206.256.811.427 1.345s.307 1 .3 1.038l-.007.065-1.725.015c-3.326.03-7.14.037-9.379.02-1.243-.009-2.741-.018-3.329-.02-.942 0-1.07-.009-1.084-.044a9.363 9.363 0 0 1 .266-.918c.155-.483.348-1.091.429-1.352a2.215 2.215 0 0 1 .833-1.354 6.758 6.758 0 0 0 1.048-1.09c.167-.22.346-.448.4-.506a.883.883 0 0 1 .615-.231c.152-.015 2.166-.024 4.185-.024zm-8.442 6.408a13.527 13.527 0 0 1 3.026 1.382c.555.21 1.3.78.861 1.435-.735.52-1.767.174-2.608.153-.669-.191-1.72-.127-2.043-.863-.041-.697-.202-1.996.764-2.107zm16.722.039c1.088-.039 1.3 1.773.61 2.35a6.934 6.934 0 0 1 -3.741.639c-.6.094-1.182-.636-.573-1.064a10.6 10.6 0 0 1 3.7-1.925z" fill="currentColor" transform="translate(0 -42.781)"/></svg>